<svg xmlns="http://www.w3.org/2000/svg" height="5" width="765">
   <g fill="#b0b2b3">
   <path
      d="M0 2.5C0 .5.5 0 2.5 0S5 .5 5 2.5 4.5 5 2.5 5 0 4.5 0 2.5zm30 0c0-2 .5-2.5 2.5-2.5S35 .5 35 2.5 34.5 5 32.5 5 30 4.5 30 2.5zm30 0c0-2 .5-2.5 2.5-2.5S65 .5 65 2.5 64.5 5 62.5 5 60 4.5 60 2.5zm30 0c0-2 .5-2.5 2.5-2.5S95 .5 95 2.5 94.5 5 92.5 5 90 4.5 90 2.5zm30 0c0-2 .5-2.5 2.5-2.5s2.5.5 2.5 2.5-.5 2.5-2.5 2.5-2.5-.5-2.5-2.5zm30 0c0-2 .5-2.5 2.5-2.5s2.5.5 2.5 2.5-.5 2.5-2.5 2.5-2.5-.5-2.5-2.5zm30 0c0-2 .5-2.5 2.5-2.5s2.5.5 2.5 2.5-.5 2.5-2.5 2.5-2.5-.5-2.5-2.5zm400 0c0-2 .5-2.5 2.5-2.5s2.5.5 2.5 2.5-.5 2.5-2.5 2.5-2.5-.5-2.5-2.5zm30 0c0-2 .5-2.5 2.5-2.5s2.5.5 2.5 2.5-.5 2.5-2.5 2.5-2.5-.5-2.5-2.5zm30 0c0-2 .5-2.5 2.5-2.5s2.5.5 2.5 2.5-.5 2.5-2.5 2.5-2.5-.5-2.5-2.5zm30 0c0-2 .5-2.5 2.5-2.5s2.5.5 2.5 2.5-.5 2.5-2.5 2.5-2.5-.5-2.5-2.5zm30 0c0-2 .5-2.5 2.5-2.5s2.5.5 2.5 2.5-.5 2.5-2.5 2.5-2.5-.5-2.5-2.5zm30 0c0-2 .5-2.5 2.5-2.5s2.5.5 2.5 2.5-.5 2.5-2.5 2.5-2.5-.5-2.5-2.5zm30 0c0-2 .5-2.5 2.5-2.5s2.5.5 2.5 2.5-.5 2.5-2.5 2.5-2.5-.5-2.5-2.5z"
       />
   <path
      d="M.364 3.507C.018 2.604.214 1.387.8.8 2.324-.724 5.21.669 4.812 2.735 4.37 5.037 1.165 5.593.364 3.507zm30 0c-.346-.903-.15-2.12.436-2.707 1.524-1.524 4.41-.131 4.012 1.935-.443 2.302-3.647 2.858-4.448.772zm30 0c-.346-.903-.15-2.12.436-2.707 1.524-1.524 4.41-.131 4.012 1.935-.443 2.302-3.647 2.858-4.448.772zm30 0c-.346-.903-.15-2.12.436-2.707 1.524-1.524 4.41-.131 4.012 1.935-.443 2.302-3.647 2.858-4.448.772zm30 0c-.346-.903-.15-2.12.436-2.707 1.524-1.524 4.41-.131 4.012 1.935-.443 2.302-3.647 2.858-4.448.772zm30 0c-.346-.903-.15-2.12.436-2.707 1.524-1.524 4.41-.131 4.012 1.935-.443 2.302-3.647 2.858-4.448.772zm30 0c-.346-.903-.15-2.12.436-2.707 1.524-1.524 4.41-.131 4.012 1.935-.443 2.302-3.647 2.858-4.448.772zm400 0c-.346-.903-.15-2.12.436-2.707 1.524-1.524 4.41-.131 4.012 1.935-.443 2.302-3.647 2.858-4.448.772zm30 0c-.346-.903-.15-2.12.436-2.707 1.524-1.524 4.41-.131 4.012 1.935-.443 2.302-3.647 2.858-4.448.772zm30 0c-.346-.903-.15-2.12.436-2.707 1.524-1.524 4.41-.131 4.012 1.935-.443 2.302-3.647 2.858-4.448.772zm30 0c-.346-.903-.15-2.12.436-2.707 1.524-1.524 4.41-.131 4.012 1.935-.443 2.302-3.647 2.858-4.448.772zm30 0c-.346-.903-.15-2.12.436-2.707 1.524-1.524 4.41-.131 4.012 1.935-.443 2.302-3.647 2.858-4.448.772zm30 0c-.346-.903-.15-2.12.436-2.707 1.524-1.524 4.41-.131 4.012 1.935-.443 2.302-3.647 2.858-4.448.772zm30 0c-.346-.903-.15-2.12.436-2.707 1.524-1.524 4.41-.131 4.012 1.935-.443 2.302-3.647 2.858-4.448.772z"
      />
   <path
      d="M1.146 3.746c-.77-.77-.784-1.477-.05-2.363C2.337-.109 5 .653 5 2.5c0 1.77-2.516 2.584-3.854 1.246zm30 0c-.77-.77-.784-1.477-.05-2.363C32.337-.109 35 .653 35 2.5c0 1.77-2.516 2.584-3.854 1.246zm30 0c-.77-.77-.784-1.477-.05-2.363C62.337-.109 65 .653 65 2.5c0 1.77-2.516 2.584-3.854 1.246zm30 0c-.77-.77-.784-1.477-.05-2.363C92.337-.109 95 .653 95 2.5c0 1.77-2.516 2.584-3.854 1.246zm30 0c-.77-.77-.784-1.477-.05-2.363C122.337-.109 125 .653 125 2.5c0 1.77-2.516 2.584-3.854 1.246zm30 0c-.77-.77-.784-1.477-.05-2.363C152.337-.109 155 .653 155 2.5c0 1.77-2.516 2.584-3.854 1.246zm30 0c-.77-.77-.784-1.477-.05-2.363C182.337-.109 185 .653 185 2.5c0 1.77-2.516 2.584-3.854 1.246zm400 0c-.77-.77-.784-1.477-.05-2.363C582.337-.109 585 .653 585 2.5c0 1.77-2.516 2.584-3.854 1.246zm30 0c-.77-.77-.784-1.477-.05-2.363C612.337-.109 615 .653 615 2.5c0 1.77-2.516 2.584-3.854 1.246zm30 0c-.77-.77-.784-1.477-.05-2.363C642.337-.109 645 .653 645 2.5c0 1.77-2.516 2.584-3.854 1.246zm30 0c-.77-.77-.784-1.477-.05-2.363C672.337-.109 675 .653 675 2.5c0 1.77-2.516 2.584-3.854 1.246zm30 0c-.77-.77-.784-1.477-.05-2.363C702.337-.109 705 .653 705 2.5c0 1.77-2.516 2.584-3.854 1.246zm30 0c-.77-.77-.784-1.477-.05-2.363C732.337-.109 735 .653 735 2.5c0 1.77-2.516 2.584-3.854 1.246zm30 0c-.77-.77-.784-1.477-.05-2.363C762.337-.109 765 .653 765 2.5c0 1.77-2.516 2.584-3.854 1.246z"
      />
   <path
      d="M1.12 3.645C.25 2.595.305 1.992 1.355 1.12 2.405.25 3.008.305 3.88 1.355c.871 1.05.815 1.653-.235 2.525-1.05.871-1.653.815-2.525-.235zm30 0c-.871-1.05-.815-1.653.235-2.525 1.05-.871 1.653-.815 2.525.235.871 1.05.815 1.653-.235 2.525-1.05.871-1.653.815-2.525-.235zm30 0c-.871-1.05-.815-1.653.235-2.525 1.05-.871 1.653-.815 2.525.235.871 1.05.815 1.653-.235 2.525-1.05.871-1.653.815-2.525-.235zm30 0c-.871-1.05-.815-1.653.235-2.525 1.05-.871 1.653-.815 2.525.235.871 1.05.815 1.653-.235 2.525-1.05.871-1.653.815-2.525-.235zm30 0c-.871-1.05-.815-1.653.235-2.525 1.05-.871 1.653-.815 2.525.235.871 1.05.815 1.653-.235 2.525-1.05.871-1.653.815-2.525-.235zm30 0c-.871-1.05-.815-1.653.235-2.525 1.05-.871 1.653-.815 2.525.235.871 1.05.815 1.653-.235 2.525-1.05.871-1.653.815-2.525-.235zm30 0c-.871-1.05-.815-1.653.235-2.525 1.05-.871 1.653-.815 2.525.235.871 1.05.815 1.653-.235 2.525-1.05.871-1.653.815-2.525-.235zm400 0c-.871-1.05-.815-1.653.235-2.525 1.05-.871 1.653-.815 2.525.235.871 1.05.815 1.653-.235 2.525-1.05.871-1.653.815-2.525-.235zm30 0c-.871-1.05-.815-1.653.235-2.525 1.05-.871 1.653-.815 2.525.235.871 1.05.815 1.653-.235 2.525-1.05.871-1.653.815-2.525-.235zm30 0c-.871-1.05-.815-1.653.235-2.525 1.05-.871 1.653-.815 2.525.235.871 1.05.815 1.653-.235 2.525-1.05.871-1.653.815-2.525-.235zm30 0c-.871-1.05-.815-1.653.235-2.525 1.05-.871 1.653-.815 2.525.235.871 1.05.815 1.653-.235 2.525-1.05.871-1.653.815-2.525-.235zm30 0c-.871-1.05-.815-1.653.235-2.525 1.05-.871 1.653-.815 2.525.235.871 1.05.815 1.653-.235 2.525-1.05.871-1.653.815-2.525-.235zm30 0c-.871-1.05-.815-1.653.235-2.525 1.05-.871 1.653-.815 2.525.235.871 1.05.815 1.653-.235 2.525-1.05.871-1.653.815-2.525-.235zm30 0c-.871-1.05-.815-1.653.235-2.525 1.05-.871 1.653-.815 2.525.235.871 1.05.815 1.653-.235 2.525-1.05.871-1.653.815-2.525-.235z"
       />
   <path
      d="M1 2.5C1 1.675 1.675 1 2.5 1S4 1.675 4 2.5 3.325 4 2.5 4 1 3.325 1 2.5zm30 0c0-.825.675-1.5 1.5-1.5s1.5.675 1.5 1.5S33.325 4 32.5 4 31 3.325 31 2.5zm30 0c0-.825.675-1.5 1.5-1.5s1.5.675 1.5 1.5S63.325 4 62.5 4 61 3.325 61 2.5zm30 0c0-.825.675-1.5 1.5-1.5s1.5.675 1.5 1.5S93.325 4 92.5 4 91 3.325 91 2.5zm30 0c0-.825.675-1.5 1.5-1.5s1.5.675 1.5 1.5-.675 1.5-1.5 1.5-1.5-.675-1.5-1.5zm30 0c0-.825.675-1.5 1.5-1.5s1.5.675 1.5 1.5-.675 1.5-1.5 1.5-1.5-.675-1.5-1.5zm30 0c0-.825.675-1.5 1.5-1.5s1.5.675 1.5 1.5-.675 1.5-1.5 1.5-1.5-.675-1.5-1.5zm400 0c0-.825.675-1.5 1.5-1.5s1.5.675 1.5 1.5-.675 1.5-1.5 1.5-1.5-.675-1.5-1.5zm30 0c0-.825.675-1.5 1.5-1.5s1.5.675 1.5 1.5-.675 1.5-1.5 1.5-1.5-.675-1.5-1.5zm30 0c0-.825.675-1.5 1.5-1.5s1.5.675 1.5 1.5-.675 1.5-1.5 1.5-1.5-.675-1.5-1.5zm30 0c0-.825.675-1.5 1.5-1.5s1.5.675 1.5 1.5-.675 1.5-1.5 1.5-1.5-.675-1.5-1.5zm30 0c0-.825.675-1.5 1.5-1.5s1.5.675 1.5 1.5-.675 1.5-1.5 1.5-1.5-.675-1.5-1.5zm30 0c0-.825.675-1.5 1.5-1.5s1.5.675 1.5 1.5-.675 1.5-1.5 1.5-1.5-.675-1.5-1.5zm30 0c0-.825.675-1.5 1.5-1.5s1.5.675 1.5 1.5-.675 1.5-1.5 1.5-1.5-.675-1.5-1.5z"
      />
   </g>
</svg>