<svg height="512" viewBox="0 0 64 64" width="512" xmlns="http://www.w3.org/2000/svg" class="svg replaced-svg">
    <g fill="#913af3">
    <path d="M1 53h48.002c.099 0 .199-.015.298-.045l.007-.004c.008-.002.015-.007.022-.009l.04-.017.03-.01c.023-.01.041-.03.063-.042.055-.029.107-.057.156-.095.011-.008.024-.014.034-.022l.007-.004c.009-.008.012-.019.02-.026.018-.016.033-.032.05-.05.008-.008.019-.011.025-.019l13.998-16.001c.004-.004.005-.01.008-.015a.998.998 0 00.145-.22c.011-.022.013-.046.021-.068.014-.034.022-.068.032-.104.022-.086.032-.171.032-.259 0-.028.004-.056.001-.084a.99.99 0 00-.087-.328c-.01-.021-.026-.04-.038-.062-.03-.055-.058-.111-.099-.16l-5.006-5.999c-.026-.031-.065-.045-.095-.073-.04-.039-.069-.086-.117-.118-.024-.016-.052-.018-.076-.031a.907.907 0 00-.161-.066.966.966 0 00-.24-.053c-.027-.001-.051-.016-.078-.016h-7.99V14c0-1.654-1.346-3-3-3H3c-1.654 0-3 1.346-3 3v38a1 1 0 001 1zm1-36h1v34H2zm37.914 14.668l2.224 3.331h-5.003zm12.716 5.331l-3.629 11.643-3.633-11.643zm-6.492-2l2.855-3.438 2.863 3.438zm8.589 2h6.07l-9.432 10.78zM51.129 31h4.995l-2.223 3.329zm-7.033 3.327L41.874 31h4.985zm-.823 2.672l3.363 10.78-9.435-10.78zm12.587-2l2.224-3.331 2.779 3.331zM40.004 29c-.027 0-.051.015-.078.018a.923.923 0 00-.241.054 1.012 1.012 0 00-.16.065c-.024.014-.052.016-.076.032-.048.032-.077.08-.117.118-.029.028-.068.042-.095.073l-5.006 5.999c-.041.049-.068.105-.099.16-.012.021-.028.04-.038.062a.99.99 0 00-.087.328c-.003.028.001.056.001.084 0 .088.01.173.032.259.01.035.019.069.032.104.008.022.01.046.021.068a.986.986 0 00.145.22c.003.005.004.011.008.015L46.798 51H5V17h43.004v12zM3 13h1.02c-.552 0-.994.448-.994 1s.452 1 1.005 1a1 1 0 000-2H7.02c-.552 0-.994.448-.994 1s.452 1 1.005 1a1 1 0 000-2h2.989c-.552 0-.994.448-.994 1s.452 1 1.005 1a1 1 0 000-2h36.974c.552 0 1 .449 1 1v1H2v-1c0-.551.448-1 1-1z" />
    <path d="M8 21h17a1 1 0 100-2H8a1 1 0 100 2zM22 24a1 1 0 00-1-1H10a1 1 0 100 2h11a1 1 0 001-1zM20 43.012H10a1 1 0 100 2h10a1 1 0 100-2zM24 24a1 1 0 001 1h6.004a1 1 0 100-2H25a1 1 0 00-1 1zM14 47H8a1 1 0 100 2h6a1 1 0 100-2zM12 27a1 1 0 100 2h4a1 1 0 100-2zM34.004 27H20a1 1 0 100 2h14.004a1 1 0 100-2zM33.004 31H12a1 1 0 100 2h21.004a1 1 0 100-2zM24 36a1 1 0 00-1-1H12a1 1 0 100 2h11a1 1 0 001-1zM32.004 39H18a1 1 0 100 2h14.004a1 1 0 100-2zM12 39a1 1 0 100 2h2a1 1 0 100-2z" />
    </g>
</svg>